<svg width="33" height="40" viewBox="0 0 33 40" fill="none" xmlns="http://www.w3.org/2000/svg">
<g filter="url(#filter0_d_1_85714)">
<path d="M24.892 21.6711C25.3107 21.4151 25.803 21.2676 26.3297 21.2676C27.8544 21.2676 29.0903 22.5036 29.0903 24.0282L29.0903 28.2536C29.0903 28.4662 29.0657 28.6784 29.0169 28.8859L24.892 21.6711ZM24.892 21.6711C24.427 20.8023 23.5108 20.2113 22.4565 20.2113C21.8643 20.2113 21.3157 20.3977 20.8662 20.7151C20.3693 19.9859 19.5322 19.5071 18.5832 19.5071C18.1873 19.5071 17.8109 19.5904 17.4705 19.7405V15.2253C17.4705 13.7008 16.2346 12.4648 14.7099 12.4648C13.1853 12.4648 11.9494 13.7008 11.9494 15.2253L11.9494 24.4138C11.0007 23.5833 9.57153 23.4876 8.50886 24.2604L8.50884 24.2604C7.27587 25.1572 7.00329 26.8837 7.89998 28.1167L8.7075 27.5294L7.89999 28.1167L13.5337 35.8632L13.5337 35.8632C13.7898 36.2154 14.1256 36.5019 14.5136 36.6995C14.9016 36.8971 15.3308 37.0001 15.7663 37.0001H15.7663H24.9213C26.2023 37.0001 27.3151 36.1188 27.6085 34.8718C27.6085 34.8718 27.6085 34.8718 27.6085 34.8718L29.0169 28.886L24.892 21.6711Z" fill="#FF00FF" stroke="white" stroke-width="2"/>
<path d="M16.2995 5.30321L16.2995 5.30264C16.299 4.24177 15.4392 3.38233 14.3787 3.38151L14.3778 3.38151C13.3165 3.38165 12.4564 4.2418 12.4562 5.30303L12.4562 5.30316L12.4562 8.19893L12.4562 8.19918C12.4564 8.72908 12.6724 9.21095 13.0191 9.55771C13.3661 9.90465 13.8477 10.1201 14.3771 10.1205L14.378 10.1205C15.4391 10.1204 16.2993 9.26015 16.2994 8.19905L16.2994 8.19897L16.2995 5.30321Z" fill="#FF00FF" stroke="white" stroke-width="2"/>
<path d="M8.37438 11.9067L8.37451 11.9069C9.12476 12.6568 10.3414 12.6573 11.0919 11.9068C11.8424 11.1562 11.8419 9.93955 11.0917 9.18936L9.04415 7.14176C8.29411 6.39172 7.07744 6.3909 6.32671 7.14163C5.57635 7.89199 5.57644 9.10879 6.32678 9.85913L8.37438 11.9067Z" fill="#FF00FF" stroke="white" stroke-width="2"/>
<path d="M8.10906 11.9469L8.10932 11.9469C9.17008 11.9471 10.0305 12.8069 10.0305 13.8682L8.10906 11.9469ZM8.10906 11.9469L5.21342 11.9469M8.10906 11.9469L5.21342 11.9469M5.21342 11.9469C5.21336 11.9469 5.2133 11.9469 5.21323 11.9469M5.21342 11.9469L5.21323 11.9469M5.21323 11.9469C5.21317 11.9469 5.2131 11.9469 5.21303 11.9469M5.21323 11.9469H5.21303M5.21303 11.9469C4.15161 11.9467 3.29151 12.8072 3.29158 13.8683L5.21303 11.9469ZM3.29158 13.8684C3.29162 14.3985 3.50754 14.8802 3.85438 15.227C4.2011 15.5737 4.68286 15.7897 5.21297 15.7897L8.10887 15.7898C9.17008 15.79 10.0305 14.9296 10.0305 13.8684L3.29158 13.8684Z" fill="#FF00FF" stroke="white" stroke-width="2"/>
<path d="M17.81 11.4138C18.5603 12.1641 19.7771 12.164 20.5275 11.4137L22.5753 9.36589C23.3255 8.61563 23.3257 7.39889 22.5753 6.64846C21.8248 5.89799 20.6082 5.89824 19.8579 6.64853L17.81 8.69639C17.0599 9.44651 17.0593 10.6631 17.81 11.4138Z" fill="#FF00FF" stroke="white" stroke-width="2"/>
<path d="M21.548 15.7898C21.0172 15.7898 20.5357 15.5732 20.1893 15.2268C19.8431 14.8806 19.6265 14.3992 19.6265 13.8684L21.548 15.7898ZM21.548 15.7898C21.5481 15.7898 21.5482 15.7898 21.5483 15.7898L24.4436 15.7897M21.548 15.7898L24.4436 15.7897M24.4436 15.7897C24.4436 15.7897 24.4437 15.7897 24.4437 15.7897M24.4436 15.7897H24.4437M24.4437 15.7897C25.5049 15.7898 26.3653 14.9296 26.3652 13.8683L24.4437 15.7897ZM21.548 11.9467C21.5481 11.9467 21.5481 11.9467 21.5482 11.9467L24.4434 11.9467C24.4435 11.9467 24.4437 11.9467 24.4438 11.9467C25.505 11.9465 26.3652 12.8071 26.3652 13.8679L21.548 11.9467ZM21.548 11.9467C20.4869 11.9467 19.6266 12.8069 19.6265 13.868L21.548 11.9467Z" fill="#FF00FF" stroke="white" stroke-width="2"/>
</g>
<defs>
<filter id="filter0_d_1_85714" x="0.291565" y="0.381508" width="31.7987" height="39.6186" filterUnits="userSpaceOnUse" color-interpolation-filters="sRGB">
<feFlood flood-opacity="0" result="BackgroundImageFix"/>
<feColorMatrix in="SourceAlpha" type="matrix" values="0 0 0 0 0 0 0 0 0 0 0 0 0 0 0 0 0 0 127 0" result="hardAlpha"/>
<feOffset/>
<feGaussianBlur stdDeviation="1"/>
<feComposite in2="hardAlpha" operator="out"/>
<feColorMatrix type="matrix" values="0 0 0 0 0 0 0 0 0 0 0 0 0 0 0 0 0 0 0.3 0"/>
<feBlend mode="normal" in2="BackgroundImageFix" result="effect1_dropShadow_1_85714"/>
<feBlend mode="normal" in="SourceGraphic" in2="effect1_dropShadow_1_85714" result="shape"/>
</filter>
</defs>
</svg>
