<svg width="33" height="40" viewBox="0 0 33 40" fill="none" xmlns="http://www.w3.org/2000/svg">
<g filter="url(#filter0_d_1_62534)">
<path d="M24.8917 21.6711C25.3104 21.4151 25.8027 21.2676 26.3294 21.2676C27.8541 21.2676 29.09 22.5036 29.09 24.0282V28.2536C29.09 28.4662 29.0654 28.6784 29.0166 28.8859L24.8917 21.6711ZM24.8917 21.6711C24.4267 20.8023 23.5105 20.2113 22.4562 20.2113C21.864 20.2113 21.3154 20.3977 20.8659 20.7151C20.369 19.9859 19.5319 19.5071 18.5829 19.5071C18.187 19.5071 17.8106 19.5904 17.4702 19.7405V15.2253C17.4702 13.7008 16.2343 12.4648 14.7096 12.4648C13.185 12.4648 11.9491 13.7008 11.9491 15.2253V24.4138C11.0004 23.5833 9.57123 23.4876 8.50855 24.2604L8.50854 24.2604C7.27557 25.1572 7.00299 26.8837 7.89968 28.1167L8.70719 27.5294L7.89968 28.1167L13.5334 35.8632L13.5334 35.8632C13.7895 36.2154 14.1253 36.5019 14.5133 36.6995C14.9013 36.8971 15.3305 37.0001 15.7659 37.0001H15.766H24.9209C26.202 37.0001 27.3148 36.1188 27.6082 34.8718C27.6082 34.8718 27.6082 34.8718 27.6082 34.8718L29.0166 28.886L24.8917 21.6711Z" fill="#FF00FF" stroke="white" stroke-width="2"/>
<path d="M16.2992 5.30321L16.2992 5.30264C16.2987 4.24177 15.4389 3.38233 14.3784 3.38151L14.3775 3.38151C13.3162 3.38165 12.4561 4.2418 12.4559 5.30303L12.4559 5.30316L12.4559 8.19893L12.4559 8.19918C12.4561 8.72908 12.6721 9.21095 13.0188 9.55771C13.3657 9.90465 13.8474 10.1201 14.3767 10.1205L14.3777 10.1205C15.4387 10.1204 16.299 9.26015 16.2991 8.19905L16.2991 8.19897L16.2992 5.30321Z" fill="#FF00FF" stroke="white" stroke-width="2"/>
<path d="M8.37407 11.9067L8.3742 11.9069C9.12445 12.6568 10.3411 12.6573 11.0916 11.9068C11.8421 11.1562 11.8416 9.93955 11.0914 9.18936L9.04384 7.14176C8.29381 6.39172 7.07713 6.3909 6.32641 7.14163C5.57605 7.89199 5.57614 9.10879 6.32647 9.85913L8.37407 11.9067Z" fill="#FF00FF" stroke="white" stroke-width="2"/>
<path d="M8.10876 11.9469L8.10902 11.9469C9.16978 11.9471 10.0302 12.8069 10.0302 13.8682L8.10876 11.9469ZM8.10876 11.9469L5.21311 11.9469M8.10876 11.9469L5.21311 11.9469M5.21311 11.9469C5.21305 11.9469 5.21299 11.9469 5.21293 11.9469M5.21311 11.9469L5.21293 11.9469M5.21293 11.9469C5.21286 11.9469 5.21279 11.9469 5.21273 11.9469M5.21293 11.9469H5.21273M5.21273 11.9469C4.15131 11.9467 3.29121 12.8072 3.29128 13.8683L5.21273 11.9469ZM3.29128 13.8684C3.29131 14.3985 3.50723 14.8802 3.85408 15.227C4.20079 15.5737 4.68256 15.7897 5.21266 15.7897L8.10856 15.7898C9.16978 15.79 10.0302 14.9296 10.0302 13.8684L3.29128 13.8684Z" fill="#FF00FF" stroke="white" stroke-width="2"/>
<path d="M17.8097 11.4138C18.56 12.1641 19.7768 12.164 20.5272 11.4137L22.575 9.36589C23.3252 8.61563 23.3254 7.39889 22.575 6.64846C21.8245 5.89799 20.6079 5.89824 19.8576 6.64853L17.8097 8.69639C17.0596 9.44651 17.059 10.6631 17.8097 11.4138Z" fill="#FF00FF" stroke="white" stroke-width="2"/>
<path d="M21.5477 15.7898C21.0169 15.7898 20.5354 15.5732 20.189 15.2268C19.8428 14.8806 19.6262 14.3992 19.6262 13.8684L21.5477 15.7898ZM21.5477 15.7898C21.5478 15.7898 21.5479 15.7898 21.548 15.7898L24.4433 15.7897M21.5477 15.7898L24.4433 15.7897M24.4433 15.7897C24.4433 15.7897 24.4434 15.7897 24.4434 15.7897M24.4433 15.7897H24.4434M24.4434 15.7897C25.5046 15.7898 26.365 14.9296 26.3649 13.8683L24.4434 15.7897ZM21.5477 11.9467C21.5478 11.9467 21.5478 11.9467 21.5478 11.9467L24.4431 11.9467C24.4432 11.9467 24.4434 11.9467 24.4435 11.9467C25.5047 11.9465 26.3649 12.8071 26.3649 13.8679L21.5477 11.9467ZM21.5477 11.9467C20.4866 11.9467 19.6263 12.8069 19.6262 13.868L21.5477 11.9467Z" fill="#FF00FF" stroke="white" stroke-width="2"/>
</g>
<defs>
<filter id="filter0_d_1_62534" x="0.291504" y="0.381512" width="31.7983" height="39.6186" filterUnits="userSpaceOnUse" color-interpolation-filters="sRGB">
<feFlood flood-opacity="0" result="BackgroundImageFix"/>
<feColorMatrix in="SourceAlpha" type="matrix" values="0 0 0 0 0 0 0 0 0 0 0 0 0 0 0 0 0 0 127 0" result="hardAlpha"/>
<feOffset/>
<feGaussianBlur stdDeviation="1"/>
<feComposite in2="hardAlpha" operator="out"/>
<feColorMatrix type="matrix" values="0 0 0 0 0 0 0 0 0 0 0 0 0 0 0 0 0 0 0.3 0"/>
<feBlend mode="normal" in2="BackgroundImageFix" result="effect1_dropShadow_1_62534"/>
<feBlend mode="normal" in="SourceGraphic" in2="effect1_dropShadow_1_62534" result="shape"/>
</filter>
</defs>
</svg>
