<svg width="33" height="40" viewBox="0 0 33 40" fill="none" xmlns="http://www.w3.org/2000/svg">
<g filter="url(#filter0_d_1_6499)">
<path d="M24.8922 21.6711C25.3109 21.4151 25.8032 21.2676 26.3299 21.2676C27.8546 21.2676 29.0905 22.5036 29.0905 24.0282L29.0905 28.2536C29.0905 28.4662 29.0659 28.6784 29.0171 28.8859L24.8922 21.6711ZM24.8922 21.6711C24.4272 20.8023 23.511 20.2113 22.4566 20.2113C21.8645 20.2113 21.3159 20.3977 20.8663 20.7151C20.3695 19.9859 19.5324 19.5071 18.5834 19.5071C18.1875 19.5071 17.8111 19.5904 17.4707 19.7405V15.2253C17.4707 13.7008 16.2348 12.4648 14.7101 12.4648C13.1855 12.4648 11.9496 13.7008 11.9496 15.2253L11.9496 24.4138C11.0009 23.5833 9.57171 23.4876 8.50904 24.2604L8.50903 24.2604C7.27606 25.1572 7.00348 26.8837 7.90017 28.1167L8.70768 27.5294L7.90017 28.1167L13.5339 35.8632L13.5339 35.8632C13.79 36.2154 14.1258 36.5019 14.5138 36.6995C14.9018 36.8971 15.331 37.0001 15.7664 37.0001H15.7665H24.9214C26.2024 37.0001 27.3152 36.1188 27.6086 34.8718C27.6086 34.8718 27.6086 34.8718 27.6086 34.8718L29.0171 28.886L24.8922 21.6711Z" fill="#FF00FF" stroke="white" stroke-width="2"/>
<path d="M16.2997 5.30321L16.2997 5.30264C16.2992 4.24177 15.4394 3.38233 14.3789 3.38151L14.3779 3.38151C13.3167 3.38165 12.4566 4.2418 12.4564 5.30303L12.4564 5.30316L12.4564 8.19893L12.4564 8.19918C12.4566 8.72908 12.6725 9.21095 13.0193 9.55771C13.3662 9.90465 13.8479 10.1201 14.3772 10.1205L14.3781 10.1205C15.4392 10.1204 16.2995 9.26015 16.2996 8.19905L16.2996 8.19897L16.2997 5.30321Z" fill="#FF00FF" stroke="white" stroke-width="2"/>
<path d="M8.37456 11.9067L8.37469 11.9069C9.12494 12.6568 10.3416 12.6573 11.0921 11.9068C11.8426 11.1562 11.8421 9.93955 11.0919 9.18936L9.04433 7.14176C8.29429 6.39172 7.07762 6.3909 6.3269 7.14163C5.57654 7.89199 5.57663 9.10879 6.32696 9.85913L8.37456 11.9067Z" fill="#FF00FF" stroke="white" stroke-width="2"/>
<path d="M8.10925 11.9469L8.1095 11.9469C9.17027 11.9471 10.0307 12.8069 10.0307 13.8682L8.10925 11.9469ZM8.10925 11.9469L5.2136 11.9469M8.10925 11.9469L5.2136 11.9469M5.2136 11.9469C5.21354 11.9469 5.21348 11.9469 5.21342 11.9469M5.2136 11.9469L5.21342 11.9469M5.21342 11.9469C5.21335 11.9469 5.21328 11.9469 5.21322 11.9469M5.21342 11.9469H5.21322M5.21322 11.9469C4.15179 11.9467 3.2917 12.8072 3.29176 13.8683L5.21322 11.9469ZM3.29176 13.8684C3.2918 14.3985 3.50772 14.8802 3.85456 15.227C4.20128 15.5737 4.68305 15.7897 5.21315 15.7897L8.10905 15.7898C9.17026 15.79 10.0307 14.9296 10.0307 13.8684L3.29176 13.8684Z" fill="#FF00FF" stroke="white" stroke-width="2"/>
<path d="M17.8102 11.4138C18.5605 12.1641 19.7773 12.164 20.5276 11.4137L22.5754 9.36589C23.3257 8.61563 23.3259 7.39889 22.5754 6.64846C21.825 5.89799 20.6084 5.89824 19.8581 6.64853L17.8102 8.69639C17.0601 9.44651 17.0595 10.6631 17.8102 11.4138Z" fill="#FF00FF" stroke="white" stroke-width="2"/>
<path d="M21.5482 15.7898C21.0173 15.7898 20.5359 15.5732 20.1895 15.2268C19.8433 14.8806 19.6267 14.3992 19.6267 13.8684L21.5482 15.7898ZM21.5482 15.7898C21.5483 15.7898 21.5484 15.7898 21.5485 15.7898L24.4438 15.7897M21.5482 15.7898L24.4438 15.7897M24.4438 15.7897C24.4438 15.7897 24.4439 15.7897 24.4439 15.7897M24.4438 15.7897H24.4439M24.4439 15.7897C25.5051 15.7898 26.3655 14.9296 26.3654 13.8683L24.4439 15.7897ZM21.5482 11.9467C21.5483 11.9467 21.5483 11.9467 21.5483 11.9467L24.4436 11.9467C24.4437 11.9467 24.4438 11.9467 24.444 11.9467C25.5052 11.9465 26.3654 12.8071 26.3654 13.8679L21.5482 11.9467ZM21.5482 11.9467C20.4871 11.9467 19.6268 12.8069 19.6267 13.868L21.5482 11.9467Z" fill="#FF00FF" stroke="white" stroke-width="2"/>
</g>
<defs>
<filter id="filter0_d_1_6499" x="0.291992" y="0.381516" width="31.7988" height="39.6186" filterUnits="userSpaceOnUse" color-interpolation-filters="sRGB">
<feFlood flood-opacity="0" result="BackgroundImageFix"/>
<feColorMatrix in="SourceAlpha" type="matrix" values="0 0 0 0 0 0 0 0 0 0 0 0 0 0 0 0 0 0 127 0" result="hardAlpha"/>
<feOffset/>
<feGaussianBlur stdDeviation="1"/>
<feComposite in2="hardAlpha" operator="out"/>
<feColorMatrix type="matrix" values="0 0 0 0 0 0 0 0 0 0 0 0 0 0 0 0 0 0 0.3 0"/>
<feBlend mode="normal" in2="BackgroundImageFix" result="effect1_dropShadow_1_6499"/>
<feBlend mode="normal" in="SourceGraphic" in2="effect1_dropShadow_1_6499" result="shape"/>
</filter>
</defs>
</svg>
