<svg width="148" height="32" viewBox="0 0 148 32" fill="none" xmlns="http://www.w3.org/2000/svg">
<path d="M117.594 0L109.404 17.24L106.323 10.72H102.998L108.066 21.4H110.742L120.878 0H117.594Z" fill="#D52B1E"/>
<path d="M0.555664 9.54988H7.69563L10.3056 18.9399C10.4056 19.2799 10.5156 19.7299 10.6356 20.2899C10.7756 20.8299 10.9156 21.3599 11.0556 21.8799C11.2156 22.4999 11.3756 23.1499 11.5356 23.8299H11.5956C11.7356 23.1499 11.8856 22.4999 12.0456 21.8799C12.1656 21.3599 12.2956 20.8299 12.4356 20.2899C12.5756 19.7299 12.6956 19.2799 12.7956 18.9399L15.4356 9.54988H22.6356V30.9999H17.7756V20.1999C17.7756 19.9799 17.7756 19.6399 17.7756 19.1799C17.7756 18.6999 17.7856 18.2199 17.8056 17.7399C17.8256 17.1799 17.8456 16.5699 17.8656 15.9099H17.8056C17.6456 16.5299 17.5056 17.0999 17.3856 17.6199C17.2856 18.0799 17.1756 18.5299 17.0556 18.9699C16.9556 19.3899 16.8756 19.6999 16.8156 19.8999L13.7256 30.9999H9.34563L6.28564 19.9299C6.22564 19.7299 6.13564 19.4099 6.01564 18.9699C5.89564 18.5299 5.78564 18.0799 5.68564 17.6199C5.56564 17.0999 5.43564 16.5299 5.29564 15.9099H5.23565C5.23565 16.5699 5.24565 17.1799 5.26565 17.7399C5.28565 18.2199 5.29564 18.6999 5.29564 19.1799C5.31564 19.6599 5.32564 20.0099 5.32564 20.2299V30.9999H0.555664V9.54988Z" fill="black"/>
<path d="M31.7851 9.54988H37.245L44.985 30.9999H39.405L38.145 27.1299H30.6451L29.4151 30.9999H24.0751L31.7851 9.54988ZM36.915 23.3199L35.2951 18.1299C35.1951 17.8499 35.0951 17.5399 34.9951 17.1999C34.8951 16.8599 34.8051 16.5299 34.7251 16.2099C34.6251 15.8499 34.5351 15.4799 34.4551 15.0999H34.3951C34.2951 15.4799 34.1951 15.8499 34.0951 16.2099C33.9951 16.5299 33.8951 16.8599 33.7951 17.1999C33.7151 17.5399 33.6251 17.8499 33.5251 18.1299L31.8751 23.3199H36.915Z" fill="black"/>
<path d="M46.493 9.54988H56.7529C57.8129 9.54988 58.8029 9.68988 59.7229 9.96988C60.6429 10.2299 61.4329 10.6199 62.0929 11.1399C62.7729 11.6599 63.3029 12.3099 63.6829 13.0899C64.0629 13.8499 64.2529 14.7299 64.2529 15.7299C64.2529 16.9899 63.9429 18.0599 63.3229 18.9399C62.7229 19.8199 61.7929 20.4799 60.5329 20.9199V21.0099C61.4729 21.3299 62.1829 21.7999 62.6629 22.4199C63.1629 23.0199 63.4929 23.8599 63.6529 24.9399C63.7729 25.6399 63.8429 26.3299 63.8629 27.0099C63.9029 27.6699 63.9429 28.2699 63.9829 28.8099C64.0229 29.3299 64.0829 29.7699 64.1629 30.1299C64.2429 30.4699 64.3729 30.6699 64.5529 30.7299V30.9999H59.3929C59.2529 30.9199 59.1429 30.7199 59.0629 30.3999C59.0029 30.0599 58.9429 29.6599 58.8829 29.1999C58.8429 28.7199 58.8029 28.2099 58.7629 27.6699C58.7229 27.1099 58.6629 26.5599 58.5829 26.0199C58.4429 25.0199 58.0929 24.2599 57.5329 23.7399C56.9929 23.2199 56.1529 22.9599 55.0129 22.9599H51.803V30.9999H46.493V9.54988ZM55.7929 19.0299C56.8529 19.0299 57.6429 18.7999 58.1629 18.3399C58.7029 17.8799 58.9729 17.2399 58.9729 16.4199C58.9729 15.6399 58.7129 14.9999 58.1929 14.4999C57.6929 13.9999 56.9329 13.7499 55.9129 13.7499H51.803V19.0299H55.7929Z" fill="black"/>
<path d="M76.3398 31.4799C74.7598 31.4799 73.3198 31.1999 72.0198 30.6399C70.7198 30.0799 69.5998 29.3099 68.6598 28.3299C67.7398 27.3299 67.0198 26.1499 66.4998 24.7899C65.9998 23.4299 65.7498 21.9499 65.7498 20.3499C65.7498 18.7499 65.9998 17.2699 66.4998 15.9099C66.9998 14.5299 67.7098 13.3399 68.6298 12.3399C69.5498 11.3399 70.6598 10.5599 71.9598 9.99988C73.2598 9.41988 74.7098 9.12988 76.3098 9.12988C77.5698 9.12988 78.7098 9.29988 79.7298 9.63988C80.7698 9.97988 81.6698 10.4399 82.4298 11.0199C83.3698 11.7199 84.0998 12.5799 84.6198 13.5999C85.1598 14.6199 85.4998 15.7299 85.6398 16.9299H80.3298C80.1898 15.9699 79.7598 15.1699 79.0398 14.5299C78.3398 13.8699 77.4198 13.5399 76.2798 13.5399C75.3998 13.5399 74.6398 13.7099 73.9998 14.0499C73.3598 14.3899 72.8298 14.8699 72.4098 15.4899C71.9898 16.0899 71.6698 16.8099 71.4498 17.6499C71.2498 18.4699 71.1498 19.3699 71.1498 20.3499C71.1498 21.3299 71.2698 22.2399 71.5098 23.0799C71.7498 23.8999 72.0898 24.6099 72.5298 25.2099C72.9898 25.8099 73.5298 26.2799 74.1498 26.6199C74.7898 26.9599 75.5098 27.1299 76.3098 27.1299C77.5098 27.1299 78.4698 26.7999 79.1898 26.1399C79.9298 25.4599 80.3598 24.5999 80.4798 23.5599H85.7898C85.7098 24.6399 85.4398 25.6499 84.9798 26.5899C84.5398 27.5299 83.9498 28.3499 83.2098 29.0499C82.3698 29.8499 81.3898 30.4599 80.2698 30.8799C79.1698 31.2799 77.8598 31.4799 76.3398 31.4799Z" fill="black"/>
<path d="M87.6842 9.54988H92.9942V26.4999H102.624V30.9999H87.6842V9.54988Z" fill="black"/>
</svg>
