<svg width="148" height="32" viewBox="0 0 148 32" fill="none" xmlns="http://www.w3.org/2000/svg">
<path d="M117.594 0L109.404 17.24L106.323 10.72H102.998L108.066 21.4H110.742L120.878 0H117.594Z" fill="#D52B1E"/>
<path d="M0.555786 9.54988H7.69576L10.3057 18.9399C10.4057 19.2799 10.5157 19.7299 10.6357 20.2899C10.7757 20.8299 10.9157 21.3599 11.0557 21.8799C11.2157 22.4999 11.3757 23.1499 11.5357 23.8299H11.5957C11.7357 23.1499 11.8857 22.4999 12.0457 21.8799C12.1657 21.3599 12.2957 20.8299 12.4357 20.2899C12.5757 19.7299 12.6957 19.2799 12.7957 18.9399L15.4357 9.54988H22.6357V30.9999H17.7757V20.1999C17.7757 19.9799 17.7757 19.6399 17.7757 19.1799C17.7757 18.6999 17.7857 18.2199 17.8057 17.7399C17.8257 17.1799 17.8457 16.5699 17.8657 15.9099H17.8057C17.6457 16.5299 17.5057 17.0999 17.3857 17.6199C17.2857 18.0799 17.1757 18.5299 17.0557 18.9699C16.9557 19.3899 16.8757 19.6999 16.8157 19.8999L13.7257 30.9999H9.34575L6.28576 19.9299C6.22576 19.7299 6.13576 19.4099 6.01576 18.9699C5.89576 18.5299 5.78576 18.0799 5.68577 17.6199C5.56577 17.0999 5.43577 16.5299 5.29577 15.9099H5.23577C5.23577 16.5699 5.24577 17.1799 5.26577 17.7399C5.28577 18.2199 5.29577 18.6999 5.29577 19.1799C5.31577 19.6599 5.32577 20.0099 5.32577 20.2299V30.9999H0.555786V9.54988Z" fill="black"/>
<path d="M31.7852 9.54988H37.2452L44.9851 30.9999H39.4052L38.1452 27.1299H30.6452L29.4152 30.9999H24.0752L31.7852 9.54988ZM36.9152 23.3199L35.2952 18.1299C35.1952 17.8499 35.0952 17.5399 34.9952 17.1999C34.8952 16.8599 34.8052 16.5299 34.7252 16.2099C34.6252 15.8499 34.5352 15.4799 34.4552 15.0999H34.3952C34.2952 15.4799 34.1952 15.8499 34.0952 16.2099C33.9952 16.5299 33.8952 16.8599 33.7952 17.1999C33.7152 17.5399 33.6252 17.8499 33.5252 18.1299L31.8752 23.3199H36.9152Z" fill="black"/>
<path d="M46.4931 9.54988H56.7531C57.8131 9.54988 58.803 9.68988 59.723 9.96988C60.643 10.2299 61.433 10.6199 62.093 11.1399C62.773 11.6599 63.303 12.3099 63.683 13.0899C64.063 13.8499 64.253 14.7299 64.253 15.7299C64.253 16.9899 63.943 18.0599 63.323 18.9399C62.723 19.8199 61.793 20.4799 60.533 20.9199V21.0099C61.473 21.3299 62.183 21.7999 62.663 22.4199C63.163 23.0199 63.493 23.8599 63.653 24.9399C63.773 25.6399 63.843 26.3299 63.863 27.0099C63.903 27.6699 63.943 28.2699 63.983 28.8099C64.023 29.3299 64.083 29.7699 64.163 30.1299C64.243 30.4699 64.373 30.6699 64.553 30.7299V30.9999H59.393C59.253 30.9199 59.143 30.7199 59.063 30.3999C59.003 30.0599 58.943 29.6599 58.883 29.1999C58.843 28.7199 58.803 28.2099 58.763 27.6699C58.723 27.1099 58.663 26.5599 58.583 26.0199C58.443 25.0199 58.0931 24.2599 57.5331 23.7399C56.9931 23.2199 56.1531 22.9599 55.0131 22.9599H51.8031V30.9999H46.4931V9.54988ZM55.7931 19.0299C56.8531 19.0299 57.6431 18.7999 58.1631 18.3399C58.703 17.8799 58.973 17.2399 58.973 16.4199C58.973 15.6399 58.713 14.9999 58.193 14.4999C57.6931 13.9999 56.9331 13.7499 55.9131 13.7499H51.8031V19.0299H55.7931Z" fill="black"/>
<path d="M76.3399 31.4799C74.7599 31.4799 73.3199 31.1999 72.0199 30.6399C70.72 30.0799 69.6 29.3099 68.66 28.3299C67.74 27.3299 67.02 26.1499 66.5 24.7899C66 23.4299 65.75 21.9499 65.75 20.3499C65.75 18.7499 66 17.2699 66.5 15.9099C67 14.5299 67.71 13.3399 68.63 12.3399C69.55 11.3399 70.66 10.5599 71.9599 9.99988C73.2599 9.41988 74.7099 9.12988 76.3099 9.12988C77.5699 9.12988 78.7099 9.29988 79.7299 9.63988C80.7699 9.97988 81.6699 10.4399 82.4299 11.0199C83.3699 11.7199 84.0999 12.5799 84.6199 13.5999C85.1599 14.6199 85.4999 15.7299 85.6399 16.9299H80.3299C80.1899 15.9699 79.7599 15.1699 79.0399 14.5299C78.3399 13.8699 77.4199 13.5399 76.2799 13.5399C75.3999 13.5399 74.6399 13.7099 73.9999 14.0499C73.3599 14.3899 72.8299 14.8699 72.4099 15.4899C71.9899 16.0899 71.6699 16.8099 71.4499 17.6499C71.25 18.4699 71.1499 19.3699 71.1499 20.3499C71.1499 21.3299 71.2699 22.2399 71.5099 23.0799C71.7499 23.8999 72.0899 24.6099 72.5299 25.2099C72.9899 25.8099 73.5299 26.2799 74.1499 26.6199C74.7899 26.9599 75.5099 27.1299 76.3099 27.1299C77.5099 27.1299 78.4699 26.7999 79.1899 26.1399C79.9299 25.4599 80.3599 24.5999 80.4799 23.5599H85.7899C85.7099 24.6399 85.4399 25.6499 84.9799 26.5899C84.5399 27.5299 83.9499 28.3499 83.2099 29.0499C82.3699 29.8499 81.3899 30.4599 80.2699 30.8799C79.1699 31.2799 77.8599 31.4799 76.3399 31.4799Z" fill="black"/>
<path d="M87.6843 9.54988H92.9943V26.4999H102.624V30.9999H87.6843V9.54988Z" fill="black"/>
</svg>
