<svg width="148" height="32" viewBox="0 0 148 32" fill="none" xmlns="http://www.w3.org/2000/svg">
<path d="M117.594 0L109.404 17.24L106.323 10.72H102.998L108.066 21.4H110.742L120.878 0H117.594Z" fill="#D52B1E"/>
<path d="M0.555908 9.54988H7.69588L10.3059 18.9399C10.4059 19.2799 10.5159 19.7299 10.6359 20.2899C10.7759 20.8299 10.9159 21.3599 11.0559 21.8799C11.2159 22.4999 11.3759 23.1499 11.5359 23.8299H11.5959C11.7359 23.1499 11.8859 22.4999 12.0459 21.8799C12.1659 21.3599 12.2959 20.8299 12.4359 20.2899C12.5759 19.7299 12.6959 19.2799 12.7959 18.9399L15.4358 9.54988H22.6358V30.9999H17.7758V20.1999C17.7758 19.9799 17.7758 19.6399 17.7758 19.1799C17.7758 18.6999 17.7858 18.2199 17.8058 17.7399C17.8258 17.1799 17.8458 16.5699 17.8658 15.9099H17.8058C17.6458 16.5299 17.5058 17.0999 17.3858 17.6199C17.2858 18.0799 17.1758 18.5299 17.0558 18.9699C16.9558 19.3899 16.8758 19.6999 16.8158 19.8999L13.7259 30.9999H9.34587L6.28588 19.9299C6.22589 19.7299 6.13589 19.4099 6.01589 18.9699C5.89589 18.5299 5.78589 18.0799 5.68589 17.6199C5.56589 17.0999 5.43589 16.5299 5.29589 15.9099H5.23589C5.23589 16.5699 5.24589 17.1799 5.26589 17.7399C5.28589 18.2199 5.29589 18.6999 5.29589 19.1799C5.31589 19.6599 5.32589 20.0099 5.32589 20.2299V30.9999H0.555908V9.54988Z" fill="black"/>
<path d="M31.7853 9.54988H37.2453L44.9853 30.9999H39.4053L38.1453 27.1299H30.6453L29.4153 30.9999H24.0753L31.7853 9.54988ZM36.9153 23.3199L35.2953 18.1299C35.1953 17.8499 35.0953 17.5399 34.9953 17.1999C34.8953 16.8599 34.8053 16.5299 34.7253 16.2099C34.6253 15.8499 34.5353 15.4799 34.4553 15.0999H34.3953C34.2953 15.4799 34.1953 15.8499 34.0953 16.2099C33.9953 16.5299 33.8953 16.8599 33.7953 17.1999C33.7153 17.5399 33.6253 17.8499 33.5253 18.1299L31.8753 23.3199H36.9153Z" fill="black"/>
<path d="M46.4932 9.54988H56.7532C57.8132 9.54988 58.8032 9.68988 59.7232 9.96988C60.6432 10.2299 61.4332 10.6199 62.0932 11.1399C62.7732 11.6599 63.3032 12.3099 63.6832 13.0899C64.0631 13.8499 64.2531 14.7299 64.2531 15.7299C64.2531 16.9899 63.9431 18.0599 63.3232 18.9399C62.7232 19.8199 61.7932 20.4799 60.5332 20.9199V21.0099C61.4732 21.3299 62.1832 21.7999 62.6632 22.4199C63.1631 23.0199 63.4931 23.8599 63.6531 24.9399C63.7731 25.6399 63.8431 26.3299 63.8631 27.0099C63.9031 27.6699 63.9431 28.2699 63.9831 28.8099C64.0231 29.3299 64.0831 29.7699 64.1631 30.1299C64.2431 30.4699 64.3731 30.6699 64.5531 30.7299V30.9999H59.3932C59.2532 30.9199 59.1432 30.7199 59.0632 30.3999C59.0032 30.0599 58.9432 29.6599 58.8832 29.1999C58.8432 28.7199 58.8032 28.2099 58.7632 27.6699C58.7232 27.1099 58.6632 26.5599 58.5832 26.0199C58.4432 25.0199 58.0932 24.2599 57.5332 23.7399C56.9932 23.2199 56.1532 22.9599 55.0132 22.9599H51.8032V30.9999H46.4932V9.54988ZM55.7932 19.0299C56.8532 19.0299 57.6432 18.7999 58.1632 18.3399C58.7032 17.8799 58.9732 17.2399 58.9732 16.4199C58.9732 15.6399 58.7132 14.9999 58.1932 14.4999C57.6932 13.9999 56.9332 13.7499 55.9132 13.7499H51.8032V19.0299H55.7932Z" fill="black"/>
<path d="M76.3401 31.4799C74.7601 31.4799 73.3201 31.1999 72.0201 30.6399C70.7201 30.0799 69.6001 29.3099 68.6601 28.3299C67.7401 27.3299 67.0201 26.1499 66.5001 24.7899C66.0001 23.4299 65.7501 21.9499 65.7501 20.3499C65.7501 18.7499 66.0001 17.2699 66.5001 15.9099C67.0001 14.5299 67.7101 13.3399 68.6301 12.3399C69.5501 11.3399 70.6601 10.5599 71.9601 9.99988C73.2601 9.41988 74.7101 9.12988 76.3101 9.12988C77.57 9.12988 78.71 9.29988 79.73 9.63988C80.77 9.97988 81.67 10.4399 82.43 11.0199C83.37 11.7199 84.1 12.5799 84.62 13.5999C85.16 14.6199 85.5 15.7299 85.64 16.9299H80.33C80.19 15.9699 79.76 15.1699 79.04 14.5299C78.34 13.8699 77.42 13.5399 76.2801 13.5399C75.4001 13.5399 74.6401 13.7099 74.0001 14.0499C73.3601 14.3899 72.8301 14.8699 72.4101 15.4899C71.9901 16.0899 71.6701 16.8099 71.4501 17.6499C71.2501 18.4699 71.1501 19.3699 71.1501 20.3499C71.1501 21.3299 71.2701 22.2399 71.5101 23.0799C71.7501 23.8999 72.0901 24.6099 72.5301 25.2099C72.9901 25.8099 73.5301 26.2799 74.1501 26.6199C74.7901 26.9599 75.5101 27.1299 76.3101 27.1299C77.51 27.1299 78.47 26.7999 79.19 26.1399C79.93 25.4599 80.36 24.5999 80.48 23.5599H85.79C85.71 24.6399 85.44 25.6499 84.98 26.5899C84.54 27.5299 83.95 28.3499 83.21 29.0499C82.37 29.8499 81.39 30.4599 80.27 30.8799C79.17 31.2799 77.86 31.4799 76.3401 31.4799Z" fill="black"/>
<path d="M87.6845 9.54988H92.9944V26.4999H102.624V30.9999H87.6845V9.54988Z" fill="black"/>
</svg>
