<svg width="20" height="21" viewBox="0 0 20 21" fill="none" xmlns="http://www.w3.org/2000/svg">
<g clip-path="url(#clip0_1_180630)">
<path d="M10 20.5C15.5228 20.5 20 16.0228 20 10.5C20 4.97715 15.5228 0.5 10 0.5C4.47715 0.5 0 4.97715 0 10.5C0 16.0228 4.47715 20.5 10 20.5Z" fill="black"/>
<path d="M10.1384 17.2769C13.7495 17.2769 16.6769 14.3496 16.6769 10.7385C16.6769 7.12737 13.7495 4.2 10.1384 4.2C6.52734 4.2 3.59998 7.12737 3.59998 10.7385C3.59998 14.3496 6.52734 17.2769 10.1384 17.2769Z" fill="white"/>
<path d="M14.1474 8.37895V6.06316L9.11053 8.20526H5V11.2158H6.33158V13.9368H8.53158V11.2158H9.11053L14.0895 13.3579V11.0421C14.8421 11.0421 15.4211 10.4053 15.4211 9.71052C15.4211 9.01579 14.8421 8.37895 14.1474 8.37895ZM7.89474 13.3H6.96842V11.2158H7.89474V13.3ZM9.16842 10.5789H5.69474V8.9H9.16842V10.5789ZM13.5105 12.3737L9.80526 10.7526V8.66842L13.5105 7.04737V12.3737ZM14.1474 10.4053V9.01579C14.5526 9.07368 14.8421 9.42105 14.7842 9.76842C14.7842 10.1158 14.4947 10.4053 14.1474 10.4053Z" fill="black"/>
</g>
<defs>
<clipPath id="clip0_1_180630">
<rect width="20" height="20" fill="white" transform="translate(0 0.5)"/>
</clipPath>
</defs>
</svg>
