<svg width="20" height="21" viewBox="0 0 20 21" fill="none" xmlns="http://www.w3.org/2000/svg">
<g clip-path="url(#clip0_5_21176)">
<path d="M10 20.5C15.5228 20.5 20 16.0228 20 10.5C20 4.97715 15.5228 0.5 10 0.5C4.47715 0.5 0 4.97715 0 10.5C0 16.0228 4.47715 20.5 10 20.5Z" fill="black"/>
<path d="M10.1386 17.2769C13.7497 17.2769 16.677 14.3496 16.677 10.7385C16.677 7.12738 13.7497 4.20001 10.1386 4.20001C6.52747 4.20001 3.6001 7.12738 3.6001 10.7385C3.6001 14.3496 6.52747 17.2769 10.1386 17.2769Z" fill="white"/>
<path d="M14.1474 8.37896V6.06317L9.11053 8.20528H5V11.2158H6.33158V13.9369H8.53158V11.2158H9.11053L14.0895 13.3579V11.0421C14.8421 11.0421 15.4211 10.4053 15.4211 9.71054C15.4211 9.0158 14.8421 8.37896 14.1474 8.37896ZM7.89474 13.3H6.96842V11.2158H7.89474V13.3ZM9.16842 10.579H5.69474V8.90001H9.16842V10.579ZM13.5105 12.3737L9.80526 10.7526V8.66843L13.5105 7.04738V12.3737ZM14.1474 10.4053V9.0158C14.5526 9.0737 14.8421 9.42107 14.7842 9.76843C14.7842 10.1158 14.4947 10.4053 14.1474 10.4053Z" fill="black"/>
</g>
<defs>
<clipPath id="clip0_5_21176">
<rect width="20" height="20" fill="white" transform="translate(0 0.5)"/>
</clipPath>
</defs>
</svg>
