<svg width="12" height="11" viewBox="0 0 12 11" fill="none" xmlns="http://www.w3.org/2000/svg">
<path fill-rule="evenodd" clip-rule="evenodd" d="M6.79992 0.741063L10.8115 4.7526C11.2699 5.21107 11.2699 5.89876 10.8115 6.35722L6.79992 10.3688C6.57069 10.598 6.28415 10.7126 5.99762 10.7126C5.71108 10.7126 5.42454 10.598 5.19531 10.3688L1.18377 6.35722C0.725305 5.89876 0.725305 5.21107 1.18377 4.7526L5.19531 0.741063C5.42454 0.511832 5.71108 0.397217 5.99762 0.397217C6.28415 0.397217 6.57069 0.511832 6.79992 0.741063ZM6.34146 9.91024L10.353 5.89869C10.4676 5.78408 10.5249 5.66946 10.5249 5.55485C10.5249 5.44023 10.4676 5.32562 10.2957 5.211L6.28416 1.19946C6.16954 1.14215 6.05493 1.08484 5.94031 1.08484C5.8257 1.08484 5.71108 1.08484 5.59646 1.19946L1.58492 5.211C1.52761 5.32562 1.47031 5.44023 1.47031 5.55485C1.47031 5.66946 1.52761 5.78408 1.64223 5.89869L5.65377 9.91024C5.76839 10.0249 5.883 10.0249 5.99762 10.0249C6.11223 10.0249 6.22685 10.0249 6.34146 9.91024Z" fill="#D52B1E"/>
</svg>
