<svg width="12" height="13" viewBox="0 0 12 13" fill="none" xmlns="http://www.w3.org/2000/svg">
<path fill-rule="evenodd" clip-rule="evenodd" d="M7.97892 7.82631L11.7684 11.6158L11.2758 12.1337L7.48629 8.34421C5.96033 9.64223 3.73708 9.70469 2.14065 8.49439C0.544212 7.28409 0.00399535 5.12656 0.841731 3.30678C1.67947 1.48699 3.66982 0.494414 5.62741 0.920198C7.58499 1.34598 8.98326 3.0756 8.98945 5.07894C8.99185 6.08609 8.63335 7.06076 7.97892 7.82631ZM1.44689 6.43199C1.99689 7.76147 3.29386 8.6285 4.73262 8.6285C5.67509 8.63017 6.57953 8.25695 7.24656 7.59112C7.91358 6.92528 8.28841 6.0215 8.28841 5.07902C8.29096 3.64027 7.42624 2.34176 6.09774 1.7894C4.76924 1.23704 3.23879 1.5397 2.22053 2.55615C1.20228 3.5726 0.896898 5.1025 1.44689 6.43199Z" fill="black"/>
</svg>
