<svg width="24" height="23" viewBox="0 0 24 23" fill="none" xmlns="http://www.w3.org/2000/svg">
<path fill-rule="evenodd" clip-rule="evenodd" d="M23.7009 11.4947C23.7009 5.17894 18.522 0.126312 12.3325 0.126312C6.01671 0.126312 0.964081 5.17894 0.964081 11.4947C0.964081 17.8105 6.01671 22.8632 12.3325 22.8632V21.4737C8.54303 21.4737 5.25882 19.3263 3.4904 16.1684L6.39566 15.6632L5.51145 9.97894L2.47987 10.4842C2.98513 5.43158 7.27987 1.51579 12.3325 1.51579C17.5114 1.51579 21.6799 5.43158 22.1851 10.4842L19.1536 9.97894L18.143 15.6632L22.6904 16.421L23.7009 11.4947ZM4.37461 11.621L4.87987 14.4L3.11145 14.6526L2.60619 12L4.37461 11.621ZM19.9114 14.5263L21.6799 14.7789L22.1851 12L20.4167 11.7474L19.9114 14.5263Z" fill="black"/>
</svg>
