<svg width="12" height="11" viewBox="0 0 12 11" fill="none" xmlns="http://www.w3.org/2000/svg">
<path fill-rule="evenodd" clip-rule="evenodd" d="M6.79991 0.741063L10.8114 4.7526C11.2699 5.21107 11.2699 5.89876 10.8114 6.35722L6.79991 10.3688C6.57068 10.598 6.28414 10.7126 5.9976 10.7126C5.71106 10.7126 5.42452 10.598 5.19529 10.3688L1.18375 6.35722C0.725289 5.89876 0.725289 5.21107 1.18375 4.7526L5.19529 0.741063C5.42452 0.511832 5.71106 0.397217 5.9976 0.397217C6.28414 0.397217 6.57068 0.511832 6.79991 0.741063ZM6.34145 9.91024L10.353 5.89869C10.4676 5.78408 10.5249 5.66946 10.5249 5.55485C10.5249 5.44023 10.4676 5.32562 10.2957 5.211L6.28414 1.19946C6.16953 1.14215 6.05491 1.08484 5.9403 1.08484C5.82568 1.08484 5.71106 1.08484 5.59645 1.19946L1.58491 5.211C1.5276 5.32562 1.47029 5.44023 1.47029 5.55485C1.47029 5.66946 1.5276 5.78408 1.64221 5.89869L5.65376 9.91024C5.76837 10.0249 5.88299 10.0249 5.9976 10.0249C6.11222 10.0249 6.22683 10.0249 6.34145 9.91024Z" fill="#D52B1E"/>
</svg>
