<svg width="20" height="20" viewBox="0 0 20 20" fill="none" xmlns="http://www.w3.org/2000/svg">
<path d="M19.7778 9.66667C18 6.44444 14.2222 4.44444 10 4.44444C5.77778 4.44444 2 6.44444 0.222222 9.66667L0 10L0.222222 10.3333C2 13.5556 5.77778 15.5556 10 15.5556C14.2222 15.5556 18 13.5556 19.7778 10.3333L20 10L19.7778 9.66667ZM1.44444 10C2.44444 8.33333 4.22222 7.11111 6.22222 6.33333C5.22222 7.33333 4.66667 8.55555 4.66667 10C4.66667 11.4444 5.22222 12.6667 6.11111 13.6667C4.11111 12.8889 2.44444 11.6667 1.44444 10ZM10 14.1111C7.77778 14.1111 5.88889 12.2222 5.88889 10C5.88889 7.77778 7.77778 5.88889 10 5.88889C12.2222 5.88889 14.1111 7.66667 14.1111 10C14.1111 12.3333 12.2222 14.1111 10 14.1111ZM13.8889 13.6667C14.7778 12.6667 15.3333 11.4444 15.3333 10C15.3333 8.55555 14.7778 7.33333 13.8889 6.33333C15.8889 7 17.5556 8.33333 18.6667 10C17.5556 11.6667 15.8889 12.8889 13.8889 13.6667Z" fill="black"/>
<path d="M10 8.33333C9.11111 8.33333 8.33333 9.11111 8.33333 10C8.33333 10.8889 9.11111 11.6667 10 11.6667C10.8889 11.6667 11.6667 10.8889 11.6667 10C11.6667 9.11111 10.8889 8.33333 10 8.33333Z" fill="black"/>
</svg>
