<svg width="21" height="21" viewBox="0 0 21 21" fill="none" xmlns="http://www.w3.org/2000/svg">
<path d="M20.5778 10.1667C18.8 6.94444 15.0223 4.94444 10.8 4.94444C6.57783 4.94444 2.80005 6.94444 1.02227 10.1667L0.800049 10.5L1.02227 10.8333C2.80005 14.0556 6.57783 16.0556 10.8 16.0556C15.0223 16.0556 18.8 14.0556 20.5778 10.8333L20.8 10.5L20.5778 10.1667ZM2.24449 10.5C3.24449 8.83333 5.02227 7.61111 7.02227 6.83333C6.02227 7.83333 5.46672 9.05555 5.46672 10.5C5.46672 11.9444 6.02227 13.1667 6.91116 14.1667C4.91116 13.3889 3.24449 12.1667 2.24449 10.5ZM10.8 14.6111C8.57783 14.6111 6.68894 12.7222 6.68894 10.5C6.68894 8.27778 8.57783 6.38889 10.8 6.38889C13.0223 6.38889 14.9112 8.16667 14.9112 10.5C14.9112 12.8333 13.0223 14.6111 10.8 14.6111ZM14.6889 14.1667C15.5778 13.1667 16.1334 11.9444 16.1334 10.5C16.1334 9.05555 15.5778 7.83333 14.6889 6.83333C16.6889 7.5 18.3556 8.83333 19.4667 10.5C18.3556 12.1667 16.6889 13.3889 14.6889 14.1667Z" fill="black"/>
<path d="M10.8 8.83333C9.91116 8.83333 9.13338 9.61111 9.13338 10.5C9.13338 11.3889 9.91116 12.1667 10.8 12.1667C11.6889 12.1667 12.4667 11.3889 12.4667 10.5C12.4667 9.61111 11.6889 8.83333 10.8 8.83333Z" fill="black"/>
</svg>
