<svg width="20" height="21" viewBox="0 0 20 21" fill="none" xmlns="http://www.w3.org/2000/svg">
<path d="M18.4439 10.5C18.4439 15.1667 14.6661 18.9444 9.99946 18.9444C7.33279 18.9444 4.88835 17.7222 3.33279 15.6111H7.33279V14.3889H1.22168V20.5H2.4439V16.6111C4.33279 18.8333 6.99946 20.1667 9.99946 20.1667C15.3328 20.1667 19.6661 15.8333 19.6661 10.5H18.4439Z" fill="black"/>
<path d="M9.99967 2.05556C12.6663 2.05556 15.1108 3.27778 16.6663 5.38889H12.5552V6.61111H18.6663V0.5H17.4441V4.27778C15.5552 2.05556 12.8886 0.833333 9.99967 0.833333C4.66634 0.833333 0.333008 5.16667 0.333008 10.5H1.55523C1.55523 5.83333 5.33301 2.05556 9.99967 2.05556Z" fill="black"/>
</svg>
