<svg width="20" height="20" viewBox="0 0 20 20" fill="none" xmlns="http://www.w3.org/2000/svg">
<path d="M18.4446 10C18.4446 14.6667 14.6669 18.4444 10.0002 18.4444C7.33352 18.4444 4.88908 17.2222 3.33352 15.1111H7.33352V13.8889H1.22241V20H2.44463V16.1111C4.33352 18.3333 7.00019 19.6667 10.0002 19.6667C15.3335 19.6667 19.6669 15.3333 19.6669 10H18.4446Z" fill="black"/>
<path d="M9.99992 1.55556C12.6666 1.55556 15.111 2.77778 16.6666 4.88889H12.5555V6.11111H18.6666V0H17.4444V3.77778C15.5555 1.55556 12.8888 0.333333 9.99992 0.333333C4.66659 0.333333 0.333252 4.66667 0.333252 10H1.55547C1.55547 5.33333 5.33325 1.55556 9.99992 1.55556Z" fill="black"/>
</svg>
