<svg width="20" height="21" viewBox="0 0 20 21" fill="none" xmlns="http://www.w3.org/2000/svg">
<path d="M18.4446 10.5C18.4446 15.1667 14.6669 18.9444 10.0002 18.9444C7.33352 18.9444 4.88908 17.7222 3.33352 15.6111H7.33352V14.3889H1.22241V20.5H2.44463V16.6111C4.33352 18.8333 7.00019 20.1667 10.0002 20.1667C15.3335 20.1667 19.6669 15.8333 19.6669 10.5H18.4446Z" fill="black"/>
<path d="M10 2.05556C12.6667 2.05556 15.1111 3.27778 16.6667 5.38889H12.5556V6.61111H18.6667V0.5H17.4444V4.27778C15.5556 2.05556 12.8889 0.833333 10 0.833333C4.66667 0.833333 0.333336 5.16667 0.333336 10.5H1.55556C1.55556 5.83333 5.33334 2.05556 10 2.05556Z" fill="black"/>
</svg>
