<svg width="20" height="21" viewBox="0 0 20 21" fill="none" xmlns="http://www.w3.org/2000/svg">
<path d="M18.4449 10.5C18.4449 15.1667 14.6671 18.9444 10.0004 18.9444C7.33377 18.9444 4.88932 17.7222 3.33377 15.6111H7.33377V14.3889H1.22266V20.5H2.44488V16.6111C4.33377 18.8333 7.00043 20.1667 10.0004 20.1667C15.3338 20.1667 19.6671 15.8333 19.6671 10.5H18.4449Z" fill="black"/>
<path d="M10.0002 2.05556C12.6668 2.05556 15.1113 3.27778 16.6668 5.38889H12.5557V6.61111H18.6668V0.5H17.4446V4.27778C15.5557 2.05556 12.8891 0.833333 10.0002 0.833333C4.66683 0.833333 0.333496 5.16667 0.333496 10.5H1.55572C1.55572 5.83333 5.3335 2.05556 10.0002 2.05556Z" fill="black"/>
</svg>
