<svg width="20" height="20" viewBox="0 0 20 20" fill="none" xmlns="http://www.w3.org/2000/svg">
<path d="M18.4446 10C18.4446 14.6667 14.6669 18.4444 10.0002 18.4444C7.33352 18.4444 4.88908 17.2222 3.33352 15.1111H7.33352V13.8889H1.22241V20H2.44463V16.1111C4.33352 18.3333 7.00019 19.6667 10.0002 19.6667C15.3335 19.6667 19.6669 15.3333 19.6669 10H18.4446Z" fill="black"/>
<path d="M10 1.55556C12.6667 1.55556 15.1112 2.77778 16.6667 4.88889H12.5556V6.11111H18.6667V0H17.4445V3.77778C15.5556 1.55556 12.8889 0.333333 10 0.333333C4.66671 0.333333 0.333374 4.66667 0.333374 10H1.5556C1.5556 5.33333 5.33337 1.55556 10 1.55556Z" fill="black"/>
</svg>
