<svg width="20" height="20" viewBox="0 0 20 20" fill="none" xmlns="http://www.w3.org/2000/svg">
<path d="M18.4449 10C18.4449 14.6667 14.6671 18.4444 10.0004 18.4444C7.33377 18.4444 4.88932 17.2222 3.33377 15.1111H7.33377V13.8889H1.22266V20H2.44488V16.1111C4.33377 18.3333 7.00043 19.6667 10.0004 19.6667C15.3338 19.6667 19.6671 15.3333 19.6671 10H18.4449Z" fill="black"/>
<path d="M10.0002 1.55556C12.6668 1.55556 15.1113 2.77778 16.6668 4.88889H12.5557V6.11111H18.6668V0H17.4446V3.77778C15.5557 1.55556 12.8891 0.333333 10.0002 0.333333C4.66683 0.333333 0.333496 4.66667 0.333496 10H1.55572C1.55572 5.33333 5.3335 1.55556 10.0002 1.55556Z" fill="black"/>
</svg>
