<svg width="148" height="32" viewBox="0 0 148 32" fill="none" xmlns="http://www.w3.org/2000/svg">
<path d="M117.594 0L109.404 17.24L106.323 10.72H102.998L108.066 21.4H110.742L120.878 0H117.594Z" fill="#D52B1E"/>
<path d="M0.555847 9.54988H7.69582L10.3058 18.9399C10.4058 19.2799 10.5158 19.7299 10.6358 20.2899C10.7758 20.8299 10.9158 21.3599 11.0558 21.8799C11.2158 22.4999 11.3758 23.1499 11.5358 23.8299H11.5958C11.7358 23.1499 11.8858 22.4999 12.0458 21.8799C12.1658 21.3599 12.2958 20.8299 12.4358 20.2899C12.5758 19.7299 12.6958 19.2799 12.7958 18.9399L15.4358 9.54988H22.6358V30.9999H17.7758V20.1999C17.7758 19.9799 17.7758 19.6399 17.7758 19.1799C17.7758 18.6999 17.7858 18.2199 17.8058 17.7399C17.8258 17.1799 17.8458 16.5699 17.8658 15.9099H17.8058C17.6458 16.5299 17.5058 17.0999 17.3858 17.6199C17.2858 18.0799 17.1758 18.5299 17.0558 18.9699C16.9558 19.3899 16.8758 19.6999 16.8158 19.8999L13.7258 30.9999H9.34581L6.28582 19.9299C6.22582 19.7299 6.13582 19.4099 6.01582 18.9699C5.89583 18.5299 5.78583 18.0799 5.68583 17.6199C5.56583 17.0999 5.43583 16.5299 5.29583 15.9099H5.23583C5.23583 16.5699 5.24583 17.1799 5.26583 17.7399C5.28583 18.2199 5.29583 18.6999 5.29583 19.1799C5.31583 19.6599 5.32583 20.0099 5.32583 20.2299V30.9999H0.555847V9.54988Z" fill="black"/>
<path d="M31.7853 9.54988H37.2452L44.9852 30.9999H39.4052L38.1452 27.1299H30.6453L29.4153 30.9999H24.0753L31.7853 9.54988ZM36.9152 23.3199L35.2952 18.1299C35.1952 17.8499 35.0952 17.5399 34.9952 17.1999C34.8952 16.8599 34.8052 16.5299 34.7252 16.2099C34.6252 15.8499 34.5352 15.4799 34.4552 15.0999H34.3952C34.2952 15.4799 34.1952 15.8499 34.0952 16.2099C33.9952 16.5299 33.8952 16.8599 33.7952 17.1999C33.7152 17.5399 33.6252 17.8499 33.5252 18.1299L31.8752 23.3199H36.9152Z" fill="black"/>
<path d="M46.4932 9.54988H56.7531C57.8131 9.54988 58.8031 9.68988 59.7231 9.96988C60.6431 10.2299 61.4331 10.6199 62.0931 11.1399C62.7731 11.6599 63.3031 12.3099 63.6831 13.0899C64.0631 13.8499 64.2531 14.7299 64.2531 15.7299C64.2531 16.9899 63.9431 18.0599 63.3231 18.9399C62.7231 19.8199 61.7931 20.4799 60.5331 20.9199V21.0099C61.4731 21.3299 62.1831 21.7999 62.6631 22.4199C63.1631 23.0199 63.4931 23.8599 63.6531 24.9399C63.7731 25.6399 63.8431 26.3299 63.8631 27.0099C63.9031 27.6699 63.9431 28.2699 63.9831 28.8099C64.0231 29.3299 64.0831 29.7699 64.1631 30.1299C64.2431 30.4699 64.3731 30.6699 64.5531 30.7299V30.9999H59.3931C59.2531 30.9199 59.1431 30.7199 59.0631 30.3999C59.0031 30.0599 58.9431 29.6599 58.8831 29.1999C58.8431 28.7199 58.8031 28.2099 58.7631 27.6699C58.7231 27.1099 58.6631 26.5599 58.5831 26.0199C58.4431 25.0199 58.0931 24.2599 57.5331 23.7399C56.9931 23.2199 56.1531 22.9599 55.0131 22.9599H51.8031V30.9999H46.4932V9.54988ZM55.7931 19.0299C56.8531 19.0299 57.6431 18.7999 58.1631 18.3399C58.7031 17.8799 58.9731 17.2399 58.9731 16.4199C58.9731 15.6399 58.7131 14.9999 58.1931 14.4999C57.6931 13.9999 56.9331 13.7499 55.9131 13.7499H51.8031V19.0299H55.7931Z" fill="black"/>
<path d="M76.34 31.4799C74.76 31.4799 73.32 31.1999 72.02 30.6399C70.72 30.0799 69.6 29.3099 68.66 28.3299C67.74 27.3299 67.02 26.1499 66.5 24.7899C66 23.4299 65.75 21.9499 65.75 20.3499C65.75 18.7499 66 17.2699 66.5 15.9099C67 14.5299 67.71 13.3399 68.63 12.3399C69.55 11.3399 70.66 10.5599 71.96 9.99988C73.26 9.41988 74.71 9.12988 76.31 9.12988C77.57 9.12988 78.71 9.29988 79.73 9.63988C80.77 9.97988 81.67 10.4399 82.43 11.0199C83.37 11.7199 84.1 12.5799 84.62 13.5999C85.16 14.6199 85.5 15.7299 85.64 16.9299H80.33C80.19 15.9699 79.76 15.1699 79.04 14.5299C78.34 13.8699 77.42 13.5399 76.28 13.5399C75.4 13.5399 74.64 13.7099 74 14.0499C73.36 14.3899 72.83 14.8699 72.41 15.4899C71.99 16.0899 71.67 16.8099 71.45 17.6499C71.25 18.4699 71.15 19.3699 71.15 20.3499C71.15 21.3299 71.27 22.2399 71.51 23.0799C71.75 23.8999 72.09 24.6099 72.53 25.2099C72.99 25.8099 73.53 26.2799 74.15 26.6199C74.79 26.9599 75.51 27.1299 76.31 27.1299C77.51 27.1299 78.47 26.7999 79.19 26.1399C79.93 25.4599 80.36 24.5999 80.48 23.5599H85.7899C85.7099 24.6399 85.44 25.6499 84.98 26.5899C84.54 27.5299 83.95 28.3499 83.21 29.0499C82.37 29.8499 81.39 30.4599 80.27 30.8799C79.17 31.2799 77.86 31.4799 76.34 31.4799Z" fill="black"/>
<path d="M87.6844 9.54988H92.9944V26.4999H102.624V30.9999H87.6844V9.54988Z" fill="black"/>
</svg>
