<svg width="11" height="11" viewBox="0 0 11 11" fill="none" xmlns="http://www.w3.org/2000/svg">
<path fill-rule="evenodd" clip-rule="evenodd" d="M6.46635 0.741063L10.4779 4.7526C10.9364 5.21107 10.9364 5.89876 10.4779 6.35722L6.46635 10.3688C6.23712 10.598 5.95058 10.7126 5.66404 10.7126C5.3775 10.7126 5.09097 10.598 4.86173 10.3688L0.850194 6.35722C0.391732 5.89876 0.391732 5.21107 0.850194 4.7526L4.86173 0.741063C5.09097 0.511832 5.3775 0.397217 5.66404 0.397217C5.95058 0.397217 6.23712 0.511832 6.46635 0.741063ZM6.00789 9.91024L10.0194 5.89869C10.134 5.78408 10.1914 5.66946 10.1914 5.55485C10.1914 5.44023 10.134 5.32562 9.96213 5.211L5.95058 1.19946C5.83597 1.14215 5.72135 1.08484 5.60674 1.08484C5.49212 1.08484 5.37751 1.08484 5.26289 1.19946L1.25135 5.211C1.19404 5.32562 1.13673 5.44023 1.13673 5.55485C1.13673 5.66946 1.19404 5.78408 1.30866 5.89869L5.3202 9.91024C5.43481 10.0249 5.54943 10.0249 5.66405 10.0249C5.77866 10.0249 5.89328 10.0249 6.00789 9.91024Z" fill="#D52B1E"/>
</svg>
