<svg width="12" height="11" viewBox="0 0 12 11" fill="none" xmlns="http://www.w3.org/2000/svg">
<path fill-rule="evenodd" clip-rule="evenodd" d="M6.79985 0.741071L10.8114 4.75261C11.2698 5.21107 11.2698 5.89877 10.8114 6.35723L6.79985 10.3688C6.57062 10.598 6.28408 10.7126 5.99754 10.7126C5.711 10.7126 5.42446 10.598 5.19523 10.3688L1.18369 6.35723C0.725228 5.89877 0.725228 5.21107 1.18369 4.75261L5.19523 0.741071C5.42446 0.51184 5.711 0.397224 5.99754 0.397224C6.28408 0.397224 6.57062 0.51184 6.79985 0.741071ZM6.34139 9.91024L10.3529 5.8987C10.4675 5.78409 10.5249 5.66947 10.5249 5.55486C10.5249 5.44024 10.4675 5.32562 10.2956 5.21101L6.28408 1.19947C6.16947 1.14216 6.05485 1.08485 5.94023 1.08485C5.82562 1.08485 5.711 1.08485 5.59639 1.19947L1.58485 5.21101C1.52754 5.32562 1.47023 5.44024 1.47023 5.55486C1.47023 5.66947 1.52754 5.78409 1.64215 5.8987L5.6537 9.91024C5.76831 10.0249 5.88293 10.0249 5.99754 10.0249C6.11216 10.0249 6.22677 10.0249 6.34139 9.91024Z" fill="#D52B1E"/>
</svg>
