<svg width="11" height="11" viewBox="0 0 11 11" fill="none" xmlns="http://www.w3.org/2000/svg">
<path fill-rule="evenodd" clip-rule="evenodd" d="M6.54991 0.741063L10.5614 4.7526C11.0199 5.21107 11.0199 5.89876 10.5614 6.35722L6.54991 10.3688C6.32068 10.598 6.03414 10.7126 5.7476 10.7126C5.46106 10.7126 5.17452 10.598 4.94529 10.3688L0.933751 6.35722C0.475289 5.89876 0.475289 5.21107 0.933751 4.7526L4.94529 0.741063C5.17452 0.511832 5.46106 0.397217 5.7476 0.397217C6.03414 0.397217 6.32068 0.511832 6.54991 0.741063ZM6.09145 9.91024L10.103 5.89869C10.2176 5.78408 10.2749 5.66946 10.2749 5.55485C10.2749 5.44023 10.2176 5.32562 10.0457 5.211L6.03414 1.19946C5.91953 1.14215 5.80491 1.08484 5.6903 1.08484C5.57568 1.08484 5.46106 1.08484 5.34645 1.19946L1.33491 5.211C1.2776 5.32562 1.22029 5.44023 1.22029 5.55485C1.22029 5.66946 1.2776 5.78408 1.39221 5.89869L5.40376 9.91024C5.51837 10.0249 5.63299 10.0249 5.7476 10.0249C5.86222 10.0249 5.97683 10.0249 6.09145 9.91024Z" fill="#D52B1E"/>
</svg>
