<svg width="12" height="13" viewBox="0 0 12 13" fill="none" xmlns="http://www.w3.org/2000/svg">
<path fill-rule="evenodd" clip-rule="evenodd" d="M7.97883 7.82631L11.7683 11.6158L11.2757 12.1337L7.4862 8.34421C5.96023 9.64223 3.73699 9.70469 2.14055 8.49439C0.54412 7.28409 0.0039038 5.12656 0.84164 3.30678C1.67938 1.48699 3.66973 0.494414 5.62732 0.920198C7.5849 1.34598 8.98317 3.0756 8.98936 5.07894C8.99176 6.08609 8.63326 7.06076 7.97883 7.82631ZM1.4468 6.43199C1.9968 7.76147 3.29377 8.6285 4.73252 8.6285C5.675 8.63017 6.57944 8.25695 7.24647 7.59112C7.91349 6.92528 8.28832 6.0215 8.28831 5.07902C8.29087 3.64027 7.42615 2.34176 6.09765 1.7894C4.76915 1.23704 3.2387 1.5397 2.22044 2.55615C1.20218 3.5726 0.896807 5.1025 1.4468 6.43199Z" fill="black"/>
</svg>
