<svg width="12" height="13" viewBox="0 0 12 13" fill="none" xmlns="http://www.w3.org/2000/svg">
<path fill-rule="evenodd" clip-rule="evenodd" d="M8.14105 7.82632L11.9305 11.6158L11.4379 12.1337L7.64841 8.34421C6.12245 9.64223 3.8992 9.70469 2.30277 8.49439C0.706337 7.28409 0.16612 5.12657 1.00386 3.30678C1.84159 1.48699 3.83195 0.494418 5.78953 0.920202C7.74712 1.34599 9.14539 3.0756 9.15157 5.07895C9.15398 6.08609 8.79548 7.06077 8.14105 7.82632ZM1.60902 6.43199C2.15902 7.76147 3.45598 8.6285 4.89474 8.6285C5.83721 8.63018 6.74166 8.25696 7.40868 7.59112C8.0757 6.92528 8.45053 6.0215 8.45053 5.07903C8.45309 3.64027 7.58837 2.34177 6.25986 1.78941C4.93136 1.23705 3.40092 1.5397 2.38266 2.55615C1.3644 3.5726 1.05902 5.10251 1.60902 6.43199Z" fill="black"/>
</svg>
