<svg width="20" height="21" viewBox="0 0 20 21" fill="none" xmlns="http://www.w3.org/2000/svg">
<path d="M19.7778 10.1667C18 6.94444 14.2222 4.94444 10 4.94444C5.77778 4.94444 2 6.94444 0.222222 10.1667L0 10.5L0.222222 10.8333C2 14.0556 5.77778 16.0556 10 16.0556C14.2222 16.0556 18 14.0556 19.7778 10.8333L20 10.5L19.7778 10.1667ZM1.44444 10.5C2.44444 8.83333 4.22222 7.61111 6.22222 6.83333C5.22222 7.83333 4.66667 9.05555 4.66667 10.5C4.66667 11.9444 5.22222 13.1667 6.11111 14.1667C4.11111 13.3889 2.44444 12.1667 1.44444 10.5ZM10 14.6111C7.77778 14.6111 5.88889 12.7222 5.88889 10.5C5.88889 8.27778 7.77778 6.38889 10 6.38889C12.2222 6.38889 14.1111 8.16667 14.1111 10.5C14.1111 12.8333 12.2222 14.6111 10 14.6111ZM13.8889 14.1667C14.7778 13.1667 15.3333 11.9444 15.3333 10.5C15.3333 9.05555 14.7778 7.83333 13.8889 6.83333C15.8889 7.5 17.5556 8.83333 18.6667 10.5C17.5556 12.1667 15.8889 13.3889 13.8889 14.1667Z" fill="black"/>
<path d="M10 8.83333C9.11111 8.83333 8.33333 9.61111 8.33333 10.5C8.33333 11.3889 9.11111 12.1667 10 12.1667C10.8889 12.1667 11.6667 11.3889 11.6667 10.5C11.6667 9.61111 10.8889 8.83333 10 8.83333Z" fill="black"/>
</svg>
