<svg width="12" height="11" viewBox="0 0 12 11" fill="none" xmlns="http://www.w3.org/2000/svg">
<path fill-rule="evenodd" clip-rule="evenodd" d="M6.79997 0.741063L10.8115 4.7526C11.27 5.21107 11.27 5.89876 10.8115 6.35722L6.79997 10.3688C6.57074 10.598 6.2842 10.7126 5.99766 10.7126C5.71112 10.7126 5.42458 10.598 5.19535 10.3688L1.18381 6.35722C0.72535 5.89876 0.72535 5.21107 1.18381 4.7526L5.19535 0.741063C5.42458 0.511832 5.71112 0.397217 5.99766 0.397217C6.2842 0.397217 6.57074 0.511832 6.79997 0.741063ZM6.34151 9.91024L10.3531 5.89869C10.4677 5.78408 10.525 5.66946 10.525 5.55485C10.525 5.44023 10.4677 5.32562 10.2957 5.211L6.2842 1.19946C6.16959 1.14215 6.05497 1.08484 5.94036 1.08484C5.82574 1.08484 5.71112 1.08484 5.59651 1.19946L1.58497 5.211C1.52766 5.32562 1.47035 5.44023 1.47035 5.55485C1.47035 5.66946 1.52766 5.78408 1.64228 5.89869L5.65382 9.91024C5.76843 10.0249 5.88305 10.0249 5.99766 10.0249C6.11228 10.0249 6.22689 10.0249 6.34151 9.91024Z" fill="#D52B1E"></path>
</svg>
