<svg width="11" height="11" viewBox="0 0 11 11" fill="none" xmlns="http://www.w3.org/2000/svg">
<path fill-rule="evenodd" clip-rule="evenodd" d="M6.54985 0.741063L10.5614 4.7526C11.0198 5.21107 11.0198 5.89876 10.5614 6.35722L6.54985 10.3688C6.32062 10.598 6.03408 10.7126 5.74754 10.7126C5.461 10.7126 5.17446 10.598 4.94523 10.3688L0.93369 6.35722C0.475228 5.89876 0.475228 5.21107 0.93369 4.7526L4.94523 0.741063C5.17446 0.511832 5.461 0.397217 5.74754 0.397217C6.03408 0.397217 6.32062 0.511832 6.54985 0.741063ZM6.09139 9.91024L10.1029 5.89869C10.2175 5.78408 10.2749 5.66946 10.2749 5.55485C10.2749 5.44023 10.2175 5.32562 10.0456 5.211L6.03408 1.19946C5.91947 1.14215 5.80485 1.08484 5.69023 1.08484C5.57562 1.08484 5.461 1.08484 5.34639 1.19946L1.33485 5.211C1.27754 5.32562 1.22023 5.44023 1.22023 5.55485C1.22023 5.66946 1.27754 5.78408 1.39215 5.89869L5.4037 9.91024C5.51831 10.0249 5.63293 10.0249 5.74754 10.0249C5.86216 10.0249 5.97677 10.0249 6.09139 9.91024Z" fill="#D52B1E"></path>
</svg>
